<?xml version="1.0" standalone="no"?>
<!DOCTYPE svg PUBLIC "-//W3C//DTD SVG 20010904//EN"
 "http://www.w3.org/TR/2001/REC-SVG-20010904/DTD/svg10.dtd">
<svg version="1.0" xmlns="http://www.w3.org/2000/svg"
 width="1140.000000pt" height="570.000000pt" viewBox="0 0 1140.000000 570.000000"
 preserveAspectRatio="xMidYMid meet">
<metadata>
Created by potrace 1.16, written by Peter Selinger 2001-2019
</metadata>
<g transform="translate(0.000000,570.000000) scale(0.100000,-0.100000)"
fill="#000000" stroke="none">
<path d="M0 4814 c0 -866 2 -936 31 -919 5 4 9 2 9 -4 0 -5 -9 -13 -20 -16
-13 -4 -20 -15 -20 -31 0 -21 4 -24 20 -19 18 6 20 3 14 -20 -5 -22 -1 -31 22
-51 16 -13 36 -23 45 -24 9 0 19 -7 23 -15 8 -22 49 -20 42 3 -4 13 2 20 29
28 28 9 35 8 35 -2 0 -8 -5 -14 -11 -14 -6 0 -9 -7 -6 -15 4 -8 2 -17 -3 -20
-18 -11 -10 -25 24 -42 31 -14 34 -20 29 -45 -5 -26 -3 -28 28 -29 19 -1 43
-2 54 -3 11 -1 30 -3 43 -4 12 -1 22 -9 22 -17 0 -17 18 -19 38 -6 11 7 11 9
-2 14 -19 8 -21 37 -3 37 8 0 22 -9 32 -20 22 -24 29 -84 9 -76 -25 9 -3 -21
23 -33 27 -12 42 -3 43 27 0 19 17 14 34 -10 15 -22 16 -22 53 -4 25 12 39 14
41 7 2 -6 8 -9 13 -5 16 10 10 -8 -8 -21 -14 -10 -5 -17 61 -49 75 -35 103
-38 92 -11 -7 19 25 52 57 60 26 7 38 -7 17 -20 -14 -8 -29 -71 -23 -95 8 -29
32 -25 65 13 28 31 29 31 24 7 -8 -41 8 -55 63 -55 l49 1 -14 -28 c-14 -26
-13 -28 18 -45 81 -43 132 -49 159 -17 9 11 8 14 -6 14 -23 0 -85 47 -85 64 0
7 -10 23 -22 36 -13 14 -22 29 -20 34 6 17 -8 57 -17 51 -14 -8 -41 6 -41 22
0 10 6 12 20 8 14 -4 20 -2 20 8 0 19 56 67 78 67 12 0 13 -3 4 -12 -26 -26
-4 -128 28 -128 10 0 26 8 36 17 15 16 17 16 29 0 20 -27 25 -20 25 36 0 29 5
58 12 65 9 9 9 12 0 12 -7 0 -12 -4 -12 -10 0 -5 -7 -10 -15 -10 -9 0 -12 6
-9 15 8 19 -36 36 -102 40 -68 3 -142 44 -207 115 -64 70 -124 162 -137 212
-12 42 -13 43 -41 28 -10 -6 -19 -7 -19 -2 0 17 -49 0 -55 -19 -4 -10 4 -40
16 -66 12 -27 25 -72 30 -101 4 -30 16 -63 25 -74 16 -16 16 -21 4 -29 -8 -5
-22 -6 -30 -3 -8 4 -31 13 -50 20 -19 7 -29 13 -22 14 6 0 12 11 12 24 0 13
-6 27 -12 29 -7 3 -1 6 15 6 21 1 27 6 27 24 0 22 -35 82 -72 124 -14 15 -18
28 -13 43 5 15 4 20 -4 16 -7 -5 -11 2 -11 18 0 14 -4 26 -9 26 -15 0 -22 -18
-9 -22 7 -3 9 -12 5 -22 -7 -17 -9 -17 -32 -2 -13 9 -31 16 -40 16 -8 0 -23 9
-32 20 -10 11 -20 20 -23 20 -13 0 -8 -116 6 -137 8 -12 14 -27 14 -33 0 -15
-36 -12 -50 5 -7 8 -21 15 -31 15 -11 0 -19 6 -19 13 0 8 -4 7 -10 -3 -9 -13
-13 -11 -30 10 -25 32 -25 40 0 40 10 0 24 9 30 19 13 25 13 61 0 61 -6 0 -10
6 -8 13 1 6 -4 23 -11 35 -11 21 -10 26 6 40 19 18 107 23 131 8 7 -4 16 -5
20 -1 7 6 -5 18 -63 58 -15 11 -24 25 -21 33 9 23 -5 44 -28 44 -12 0 -28 6
-36 13 -12 10 -12 9 -4 -3 17 -24 36 -99 28 -111 -4 -7 -14 0 -24 17 -19 28
-90 61 -90 41 0 -5 -16 -29 -35 -52 -30 -37 -33 -45 -20 -55 18 -15 11 -30
-15 -30 -20 0 -35 -26 -20 -35 6 -4 10 -13 10 -21 0 -27 -59 16 -62 45 -8 66
61 174 154 244 36 27 65 36 53 17 -3 -5 -2 -10 4 -10 20 0 25 27 26 125 0 75
4 109 18 134 9 19 17 40 17 46 0 21 77 91 112 101 18 6 46 7 61 3 22 -6 33 -3
52 17 38 38 118 26 183 -26 25 -21 29 -29 22 -47 -8 -19 -17 -23 -50 -23 l-40
0 1 -60 c1 -40 -4 -68 -14 -84 -14 -21 -14 -26 -2 -36 12 -10 20 -9 40 4 14 9
25 21 25 26 0 6 6 10 14 10 7 0 25 11 40 25 15 14 33 25 40 25 19 0 49 37 41
50 -11 18 34 97 70 121 19 13 35 29 35 36 0 33 118 123 162 123 9 0 19 4 23
10 3 5 13 6 21 3 16 -6 16 -58 0 -94 -5 -12 -1 -18 13 -22 24 -6 33 5 38 47 4
41 29 63 79 71 31 5 45 2 57 -10 9 -8 20 -15 24 -14 34 8 136 -82 116 -102 -8
-8 -22 -9 -40 -3 -15 4 -32 8 -38 8 -5 1 -14 6 -20 12 -14 16 -110 25 -123 12
-8 -8 -7 -19 3 -39 14 -27 11 -59 -5 -59 -4 0 -13 -27 -19 -59 -9 -44 -18 -63
-36 -75 -39 -25 -65 -21 -66 12 -3 46 -4 55 -18 115 -12 57 -12 70 5 112 7 19
7 19 -13 3 -11 -10 -27 -18 -36 -18 -9 0 -26 -18 -37 -40 -12 -23 -32 -45 -45
-50 -14 -5 -25 -13 -25 -18 0 -4 -9 -18 -21 -30 -15 -17 -19 -33 -17 -65 4
-53 -14 -72 -76 -81 -25 -4 -46 -11 -46 -17 0 -5 5 -9 10 -9 6 0 10 -7 10 -15
0 -8 6 -15 14 -15 7 0 16 -12 19 -27 4 -22 12 -28 35 -30 25 -2 31 4 47 39 9
22 26 43 37 46 15 4 19 12 16 39 -2 27 2 37 22 48 41 23 51 28 54 24 32 -41
86 -121 86 -128 0 -6 10 -19 22 -31 17 -16 19 -23 10 -32 -7 -7 -12 -20 -12
-30 0 -11 -12 -21 -37 -27 -49 -14 -53 -14 -53 4 0 13 -5 12 -32 -3 -59 -32
-78 -47 -78 -59 0 -15 -37 -36 -50 -28 -10 6 -46 -43 -37 -51 3 -4 27 -9 52
-11 38 -5 49 -2 69 19 39 39 116 72 178 76 102 8 126 -10 113 -82 -8 -41 -23
-49 -59 -31 -24 13 -28 12 -52 -10 -16 -15 -24 -31 -21 -40 9 -23 -34 -84 -60
-85 -21 0 -53 -24 -53 -40 0 -4 -16 -17 -35 -29 -31 -18 -34 -23 -25 -41 6
-12 23 -25 37 -31 16 -6 23 -15 19 -24 -9 -24 11 -27 51 -5 21 11 46 20 55 20
10 0 18 4 18 10 0 20 50 23 70 5 23 -20 24 -17 10 19 -8 22 -7 26 8 26 26 0
42 -20 42 -51 0 -20 -6 -28 -25 -33 -13 -3 -29 -16 -35 -27 -12 -22 -16 -17
107 -140 20 -21 33 -42 29 -48 -4 -6 -12 -9 -17 -6 -16 11 -10 -7 8 -20 15
-11 15 -19 4 -76 -7 -35 -18 -83 -24 -106 l-11 -42 -33 20 c-25 16 -43 19 -67
15 -44 -8 -53 -22 -51 -76 1 -25 -2 -57 -6 -72 -10 -37 12 -58 60 -58 31 0 40
5 49 25 7 14 12 34 12 44 0 23 26 46 35 31 3 -5 3 -10 -2 -10 -4 0 -9 -25 -9
-56 -2 -61 -11 -74 -50 -66 -35 6 -29 -13 9 -29 17 -7 33 -13 35 -14 1 -1 -3
-26 -8 -56 -13 -64 -25 -145 -46 -294 -8 -60 -21 -150 -30 -200 -8 -49 -16
-153 -17 -230 -2 -115 -6 -154 -26 -218 -13 -42 -28 -77 -33 -77 -4 0 -8 -13
-8 -29 0 -16 -6 -36 -14 -43 -8 -8 -15 -23 -18 -34 -2 -13 -16 -22 -43 -29
-22 -5 -45 -13 -50 -17 -6 -3 -27 -9 -48 -13 -48 -9 -47 -21 3 -42 36 -16 55
-43 30 -43 -5 0 -10 -9 -10 -20 0 -14 -9 -21 -38 -26 -20 -4 -49 -13 -64 -20
-15 -8 -34 -11 -43 -8 -13 5 -14 2 -5 -21 6 -15 9 -29 8 -29 -2 -1 -21 -10
-43 -19 -52 -23 -98 -23 -158 -2 -27 9 -52 14 -55 10 -12 -12 69 -80 145 -119
56 -30 79 -48 81 -63 5 -31 -40 -57 -89 -54 -48 2 -64 -6 -46 -23 17 -18 65
-42 100 -50 29 -7 36 -33 15 -54 -9 -9 -9 -18 0 -37 7 -14 12 -41 12 -59 0
-31 3 -34 35 -40 36 -7 55 -30 55 -67 0 -12 11 -41 24 -63 13 -23 26 -60 30
-82 8 -54 60 -215 91 -279 13 -27 44 -99 70 -160 78 -184 87 -200 118 -203 15
-2 27 -7 27 -11 0 -5 8 -11 18 -13 10 -3 35 -35 55 -70 33 -60 40 -66 83 -78
26 -7 80 -35 121 -62 l74 -48 2079 0 c1380 0 2080 3 2080 10 0 6 20 10 45 10
25 0 45 -4 45 -10 0 -5 20 -10 45 -10 25 0 45 5 45 10 0 6 -12 10 -26 10 -14
0 -23 4 -19 10 3 5 15 10 26 10 10 0 19 5 19 11 0 6 7 3 16 -5 8 -9 22 -16 30
-16 8 0 14 -7 14 -15 0 -19 17 -19 36 0 17 16 19 14 -31 30 -23 7 -18 23 8 27
12 2 22 10 22 18 0 10 14 17 44 20 25 3 46 10 48 15 3 10 -17 12 -134 14 -52
1 -78 21 -27 21 16 0 23 4 18 11 -3 6 -20 8 -38 5 -17 -3 -44 -2 -61 3 -33 9
-28 13 42 31 24 6 42 16 40 23 -1 8 16 13 51 15 44 3 52 6 52 23 0 14 7 19 30
19 17 0 30 -4 30 -9 0 -5 9 -7 21 -4 12 4 25 0 29 -7 7 -11 11 -11 24 -1 8 7
39 14 68 16 29 1 57 3 62 4 6 0 1 8 -10 16 -18 14 -18 14 7 15 19 0 28 -6 33
-22 6 -20 8 -21 19 -7 12 16 61 34 52 19 -7 -11 57 -6 76 6 8 5 28 9 44 9 19
0 29 5 27 13 -3 15 45 17 50 2 4 -12 28 -14 76 -4 18 4 32 2 32 -4 0 -5 30
-12 68 -15 37 -3 93 -8 124 -12 34 -3 59 -1 63 5 8 13 35 13 35 0 0 -5 -6 -10
-13 -10 -8 0 -22 -9 -32 -20 -18 -19 -17 -20 6 -20 13 0 33 7 43 15 11 8 40
15 64 15 50 0 122 19 122 32 0 4 -5 8 -12 8 -6 0 -9 2 -6 5 10 11 37 -7 31
-21 -8 -21 39 -34 119 -32 49 2 73 -1 76 -10 4 -14 42 -16 42 -2 0 6 7 10 16
10 9 0 14 6 11 13 -2 6 -11 11 -21 9 -9 -2 -16 2 -16 8 0 13 16 13 60 0 24 -7
54 -7 92 0 65 12 142 4 114 -12 -9 -5 -14 -13 -11 -19 9 -14 42 -11 49 6 3 9
12 12 22 8 9 -3 19 -1 23 5 4 7 17 6 39 -4 18 -7 31 -18 27 -24 -4 -6 9 -10
32 -10 27 0 34 3 24 9 -24 15 33 25 70 12 24 -8 35 -8 52 4 17 12 24 12 46 0
19 -9 32 -10 45 -3 27 15 45 -6 27 -34 -11 -18 -11 -20 4 -14 9 3 19 6 21 6 2
0 4 8 4 19 0 22 59 39 71 20 11 -18 44 -6 41 15 -2 12 2 17 13 14 9 -1 15 -7
15 -12 -2 -13 22 -26 52 -26 36 0 59 10 52 22 -4 6 3 5 15 -2 23 -12 61 -5 61
11 0 5 -8 9 -17 9 -17 1 -16 2 1 11 13 8 24 8 40 0 13 -8 107 -14 256 -17 129
-2 259 -5 287 -7 35 -1 53 2 53 9 0 18 20 21 90 14 36 -4 91 -5 123 -2 44 3
57 1 55 -9 -2 -7 5 -15 15 -17 9 -2 17 1 17 7 0 6 -6 11 -12 11 -9 0 -9 3 1 9
8 5 30 7 50 4 53 -6 119 -3 146 7 14 5 35 6 48 2 32 -10 82 -9 85 3 1 6 -7 11
-18 13 -11 2 -26 12 -33 23 -15 25 -33 24 -40 -1 -4 -17 -12 -20 -40 -17 -20
2 -42 10 -51 18 -37 33 -48 41 -53 35 -3 -3 0 -12 7 -21 10 -13 9 -15 -8 -15
-11 0 -25 7 -33 16 -11 14 -14 14 -24 1 -6 -8 -31 -18 -55 -22 -71 -12 -319
-14 -353 -2 -69 22 -79 27 -73 42 3 8 2 14 -2 14 -18 -3 -32 2 -32 12 0 6 9 8
21 4 14 -5 27 0 40 14 22 24 37 27 35 9 -1 -15 5 -18 39 -18 34 0 32 18 -2 23
-16 2 28 4 97 4 79 1 111 -2 87 -7 -59 -11 -53 -17 29 -29 42 -6 79 -9 82 -6
3 3 -2 5 -12 5 -9 0 -14 4 -11 10 3 5 24 10 45 10 22 0 40 5 43 13 3 9 7 9 19
0 21 -18 100 -27 135 -17 23 7 15 10 -47 15 l-75 6 75 -3 c41 -1 105 -6 143
-9 57 -6 66 -5 62 8 -6 14 60 16 268 5 32 -2 61 0 63 4 3 5 52 8 110 8 86 0
104 -3 104 -15 0 -8 7 -15 16 -15 10 0 14 6 10 15 -4 13 7 14 77 9 45 -3 91
-5 102 -5 10 0 25 -5 33 -11 10 -9 15 -9 21 0 9 15 125 17 171 3 52 -16 90
-14 90 5 0 13 10 14 73 8 39 -4 77 -6 82 -5 26 5 108 10 193 10 85 1 92 2 92
21 0 18 -7 20 -57 20 -1312 -1 -3313 7 -3327 14 -17 8 -17 10 5 22 13 7 38 13
54 14 17 0 46 9 66 19 37 20 197 41 170 23 -9 -7 -5 -9 15 -9 16 0 23 2 16 4
-20 7 -3 23 25 23 13 0 36 9 50 20 14 11 38 20 54 20 15 0 32 6 36 14 8 13 51
25 105 29 14 1 30 5 34 10 4 4 24 7 45 7 21 0 40 4 43 9 3 5 39 12 80 16 42 4
80 12 86 20 6 7 31 13 55 13 52 0 105 11 105 20 0 9 45 28 85 38 17 4 33 12
37 18 4 6 48 12 103 14 52 2 93 8 90 12 -3 5 -19 7 -35 5 -30 -4 -49 9 -29 20
5 4 25 7 44 7 25 0 35 5 38 20 3 11 10 17 15 14 5 -3 15 1 22 9 7 9 29 15 51
15 21 0 50 5 66 11 29 12 28 13 -19 23 -31 7 -38 26 -10 26 9 0 39 11 66 25
27 14 59 25 70 25 12 0 25 10 31 23 6 12 17 21 27 19 9 -1 19 2 23 8 3 5 15
10 26 10 11 0 17 5 14 10 -4 6 -11 8 -16 5 -5 -4 -9 -2 -9 3 0 5 21 15 48 22
26 6 53 14 60 16 6 2 12 10 12 18 0 9 11 18 25 22 14 3 25 12 25 19 0 7 12 16
26 19 15 4 33 14 41 21 8 8 22 15 32 15 10 0 21 3 24 7 4 3 22 8 39 10 50 5
66 12 49 23 -9 5 -11 14 -6 26 5 11 7 24 6 31 -1 7 16 17 38 23 21 5 42 17 45
26 4 10 12 14 22 10 11 -4 15 -2 11 8 -4 11 11 15 69 21 41 4 72 11 68 16 -9
14 6 10 23 -6 9 -10 23 -13 37 -9 36 11 38 21 4 17 -27 -3 -29 -1 -13 6 18 9
17 10 -10 11 -16 1 -39 5 -50 9 -15 6 -11 9 23 14 29 5 40 11 36 21 -4 11 11
15 65 21 38 4 84 4 102 0 22 -5 29 -4 25 4 -4 7 1 11 13 11 12 0 21 5 21 10 0
6 -10 10 -22 10 -13 0 -34 6 -48 13 -15 8 -35 10 -50 6 -14 -4 -19 -7 -12 -8
7 -1 10 -6 7 -12 -4 -6 -28 -9 -56 -7 -55 4 -79 18 -31 18 26 0 32 4 32 21 0
21 3 22 93 16 100 -6 153 -19 124 -30 -21 -8 -22 -27 -2 -27 8 0 19 9 25 20 7
14 21 20 44 20 18 0 58 5 87 11 73 14 220 18 243 6 13 -6 21 -5 28 4 7 11 11
11 15 2 6 -15 43 -17 43 -3 0 6 7 10 15 10 8 0 12 -6 9 -13 -3 -10 5 -12 33
-9 21 2 43 9 50 14 7 6 13 4 16 -4 3 -10 8 -11 26 0 11 6 32 12 46 12 l25 0 0
726 c0 688 -1 726 -17 719 -101 -42 -255 -71 -431 -81 -101 -6 -126 -4 -133 7
-8 12 -11 12 -20 -1 -8 -12 -9 -10 -4 8 4 13 2 21 -3 20 -6 -2 -10 2 -10 7 0
6 5 9 12 7 6 -1 -1 8 -15 20 -15 13 -39 47 -54 76 -21 40 -38 58 -68 72 -49
24 -53 24 -37 5 7 -9 10 -18 7 -22 -4 -3 -11 6 -18 20 -7 15 -17 23 -25 20 -8
-3 -14 0 -14 6 0 6 5 11 12 11 6 0 9 2 6 5 -9 10 -35 -5 -35 -20 0 -8 4 -15 9
-15 4 0 8 -4 8 -9 0 -6 20 -52 44 -103 161 -338 169 -733 21 -1028 -189 -377
-578 -727 -1100 -988 -297 -149 -750 -314 -1050 -383 -49 -11 -100 -24 -113
-29 -33 -14 -359 -78 -507 -100 -125 -18 -260 -33 -560 -62 -183 -17 -853 -18
-1030 0 -71 6 -211 19 -310 28 -519 44 -1016 157 -1455 329 -130 51 -416 191
-525 258 l-90 54 -8 -65 c-4 -36 -15 -79 -25 -96 -19 -32 -93 -75 -129 -76
-20 0 -23 5 -23 35 0 25 -6 39 -21 47 -11 7 -34 41 -50 75 -16 35 -33 63 -38
63 -5 0 -11 10 -14 23 -3 12 -14 46 -26 76 -21 56 -19 73 18 114 12 14 16 40
16 101 0 104 13 125 108 172 105 53 156 87 157 104 0 9 -18 34 -40 55 -62 60
-71 101 -94 410 -5 59 2 105 15 105 5 0 9 -6 9 -12 0 -7 10 -26 23 -41 19 -24
31 -29 86 -33 79 -6 141 -32 169 -72 28 -38 52 -131 52 -202 l1 -55 70 -50
c85 -60 146 -99 299 -190 63 -38 160 -99 216 -136 210 -140 338 -212 515 -287
339 -146 815 -258 1239 -292 350 -29 593 -50 700 -61 137 -13 401 -29 497 -29
l82 0 3 27 c2 22 9 29 30 31 23 3 30 -2 38 -23 8 -22 15 -26 33 -21 12 3 27 6
32 6 10 0 45 51 45 65 0 14 -22 -9 -31 -33 -9 -24 -11 -24 -26 -9 -15 15 -15
18 0 35 9 10 17 22 17 26 0 22 29 33 73 29 26 -3 47 -2 47 2 0 4 -16 29 -35
55 -20 27 -40 62 -46 79 -21 59 -33 38 -43 -73 -3 -33 -11 -63 -18 -67 -21
-13 -55 -10 -72 6 -8 8 -20 15 -26 15 -8 0 -8 6 0 20 13 24 5 41 -15 34 -11
-4 -12 0 -6 23 6 23 13 29 44 31 39 3 47 15 21 30 -11 6 -14 16 -9 31 3 12 11
18 17 15 6 -4 8 1 3 16 -6 19 -4 21 14 15 12 -3 21 -2 21 3 0 16 -29 35 -45
28 -11 -4 -15 1 -15 19 0 14 -4 25 -10 25 -13 0 -9 48 6 78 11 21 12 20 48
-33 36 -55 74 -76 63 -35 -3 11 -1 23 4 26 13 8 3 90 -16 127 -17 33 -11 69 9
61 7 -3 19 2 26 11 10 12 10 21 0 46 -10 24 -10 40 0 83 10 45 10 59 -1 85 -8
17 -20 31 -26 31 -7 0 -13 7 -13 15 0 8 6 15 14 15 8 0 22 28 35 67 12 37 27
73 33 81 15 18 3 26 -20 13 -12 -6 -30 -11 -42 -11 -12 0 -19 -3 -17 -7 3 -5
-4 -17 -14 -27 -17 -17 -19 -18 -19 -3 0 9 5 17 11 17 6 0 9 5 7 11 -2 6 -7
10 -12 9 -5 -1 -13 4 -17 12 -7 10 -9 10 -9 1 0 -32 -17 -7 -33 50 -11 34 -23
71 -28 82 -16 38 -51 140 -56 167 -7 39 12 36 54 -10 24 -25 31 -29 22 -13 -8
14 -22 34 -31 45 -10 11 -18 24 -18 29 0 17 -75 104 -86 100 -7 -2 -14 7 -18
20 -3 13 -22 42 -43 65 -21 23 -51 57 -68 77 -16 19 -35 35 -42 35 -7 0 -10 7
-7 15 4 8 2 15 -4 15 -6 0 -12 -5 -14 -12 -2 -6 -20 5 -41 26 -21 20 -42 34
-48 31 -5 -4 -25 5 -44 20 -46 35 -44 21 5 -35 43 -49 43 -49 31 -68 -14 -23
-34 -8 -63 48 -25 46 -28 50 -24 23 3 -18 1 -35 -4 -38 -7 -4 -6 -14 1 -26 12
-23 -6 -43 -48 -55 -13 -3 -23 -9 -23 -13 0 -8 -45 -31 -60 -31 -15 0 -12 40
3 45 6 2 29 6 50 10 24 4 37 11 37 22 0 12 -6 14 -27 8 -16 -4 -50 -9 -77 -12
-47 -5 -48 -6 -42 -34 8 -39 -16 -39 -31 0 -8 23 -19 31 -46 36 -19 4 -56 22
-83 41 -26 19 -53 34 -61 34 -7 0 -13 5 -13 10 0 6 7 10 16 10 10 0 14 6 10
15 -9 24 67 24 91 -1 18 -17 21 -17 39 0 19 20 18 37 -3 29 -14 -4 -15 -3 -7
6 8 8 18 9 38 1 21 -7 34 -6 56 5 16 8 36 15 45 15 28 0 11 24 -26 37 -47 16
-100 16 -140 -2 l-34 -14 40 -1 c37 -1 38 -2 21 -15 -10 -7 -44 -16 -75 -20
-31 -3 -68 -9 -82 -14 -18 -5 -26 -5 -26 3 1 51 -14 60 -43 24 -24 -30 -39
-14 -19 20 9 16 23 27 36 27 32 0 39 13 10 20 -37 10 -90 -29 -84 -61 8 -45
-84 -58 -96 -14 -3 11 -11 20 -19 20 -23 0 -63 -34 -63 -55 0 -17 -9 -21 -64
-27 -35 -4 -71 -10 -79 -13 -7 -3 -27 3 -43 12 -24 15 -31 15 -38 4 -6 -9 -10
-6 -13 13 -3 14 -1 26 3 26 5 0 6 7 3 15 -4 8 -12 15 -19 15 -7 0 -15 5 -17
12 -5 13 -28 2 -28 -13 0 -6 4 -7 10 -4 6 3 10 1 10 -4 0 -17 -18 -13 -40 9
-27 27 -25 42 9 97 17 26 27 50 25 53 -3 2 -29 -21 -59 -53 -29 -31 -60 -57
-69 -57 -21 0 -21 16 0 24 15 6 14 9 -5 25 -23 20 -30 41 -7 22 10 -9 16 -8
26 4 7 8 9 15 4 16 -11 0 100 57 136 70 16 5 8 6 -25 2 -27 -4 -71 -6 -97 -5
-26 0 -50 -3 -53 -8 -4 -6 -15 -10 -26 -10 -30 0 -18 24 14 28 16 2 24 8 21
16 -7 17 63 60 94 58 13 -1 21 2 17 7 -3 5 3 12 12 16 31 10 55 52 43 75 -9
16 -8 18 5 13 18 -6 95 25 95 39 0 5 -15 6 -34 3 -25 -5 -35 -3 -39 9 -5 13 1
16 32 16 43 0 79 28 60 47 -15 15 1 22 33 16 31 -6 47 -43 18 -43 -10 0 -22
-9 -25 -20 -3 -11 -12 -20 -18 -21 -7 0 -3 -4 8 -8 11 -5 25 -5 30 -1 18 13
55 18 61 9 9 -15 44 -10 50 6 7 16 39 20 48 6 9 -13 -44 -31 -89 -30 -63 1
-144 -12 -155 -26 -8 -10 0 -15 40 -20 29 -4 56 -3 63 3 7 5 54 12 106 16 91
6 94 5 113 -19 14 -19 23 -23 32 -16 9 8 18 6 32 -4 10 -8 29 -15 42 -15 13 0
66 -22 118 -50 99 -52 120 -55 54 -6 -22 17 -40 35 -40 41 0 6 -16 17 -36 24
-19 7 -38 19 -41 27 -3 9 -13 12 -26 8 -18 -6 -19 -3 -13 22 4 16 9 31 11 32
17 17 145 -96 189 -166 14 -23 32 -42 39 -42 8 0 24 -12 38 -26 35 -38 109
-84 136 -84 24 0 32 23 12 36 -7 4 -9 21 -6 40 3 19 2 34 -3 34 -26 0 -45 234
-28 354 8 54 17 79 40 107 17 21 28 45 25 53 -3 8 2 16 14 19 24 6 24 24 -1
65 -23 37 -40 41 -47 11 -4 -14 -11 -18 -22 -14 -9 4 -20 8 -26 9 -21 4 -35
18 -35 36 0 11 -9 24 -19 30 -27 14 -28 13 -35 -13 -6 -24 -78 -65 -84 -47 -2
6 -12 10 -22 10 -10 0 -21 8 -25 18 -6 16 -7 16 -19 0 -16 -22 -39 -23 -56 -4
-9 11 -18 13 -37 5 -44 -16 -36 -3 13 25 37 21 53 25 73 18 23 -7 49 -8 99 -3
6 0 12 10 12 21 0 24 17 26 42 3 15 -13 21 -14 31 -4 8 8 9 14 1 19 -11 7 -34
87 -34 117 0 12 6 15 19 10 28 -9 37 15 14 34 -11 9 -23 24 -26 33 -4 11 -17
18 -30 18 -14 0 -30 7 -37 15 -7 8 -20 15 -29 14 -12 0 -11 -4 7 -16 12 -8 22
-19 22 -24 0 -14 -26 -10 -40 6 -7 8 -19 15 -26 15 -8 0 -14 -7 -14 -15 0 -19
-23 -19 -60 0 -49 25 -38 48 16 33 19 -5 40 -8 46 -6 20 7 -57 45 -105 52 -32
5 -50 14 -58 27 -8 15 -17 19 -34 15 -18 -5 -24 -1 -29 17 -6 20 -8 20 -19 6
-14 -19 -54 -9 -74 18 -10 13 -9 19 5 29 16 12 16 13 -3 14 -11 0 -31 -3 -45
-7 l-25 -7 23 -5 c21 -6 22 -8 8 -26 -13 -17 -18 -18 -35 -7 -12 6 -28 12 -36
12 -13 0 -13 -3 -3 -20 14 -22 6 -34 -28 -44 -18 -6 -22 -2 -26 24 -3 22 0 31
14 36 11 3 18 15 18 30 0 13 5 33 12 44 15 23 4 38 -15 21 -11 -8 -23 -8 -48
0 -51 18 -60 28 -48 51 17 31 -5 47 -31 23 l-20 -18 22 -19 c16 -14 19 -21 10
-30 -13 -13 -62 -18 -62 -6 0 4 -15 14 -34 23 -24 12 -37 26 -41 46 -5 24 -12
29 -35 29 -16 0 -32 5 -35 10 -3 6 -13 10 -21 10 -14 0 -14 -13 3 -72 3 -12
-1 -18 -11 -18 -12 0 -16 11 -16 49 0 35 -4 51 -16 55 -24 9 -28 7 -15 -8 10
-11 6 -21 -19 -46 -31 -31 -32 -50 -3 -50 9 0 13 -6 9 -15 -3 -9 0 -15 9 -15
18 0 18 2 4 -41 -6 -19 -13 -40 -15 -48 -4 -11 -8 -10 -24 4 -16 15 -22 15
-35 5 -20 -17 -62 10 -67 42 -2 15 -11 24 -25 26 -26 4 -29 17 -9 38 18 17 26
18 26 1 0 -7 13 -20 29 -30 27 -16 29 -16 45 2 21 23 21 24 -10 88 l-25 54
-21 -26 c-24 -31 -42 -17 -27 22 12 33 13 33 -22 33 -21 0 -28 -4 -23 -12 5
-7 9 -34 11 -60 2 -38 -1 -49 -16 -58 -27 -14 -29 -13 -33 13 -2 16 -11 23
-32 25 -35 4 -54 -11 -37 -32 16 -19 -14 -50 -38 -40 -9 4 -24 6 -35 6 -12 -1
-17 4 -13 16 2 9 6 23 8 31 2 8 -6 19 -17 26 -12 6 -29 17 -38 24 -15 13 -14
17 16 42 35 29 34 48 -2 29 -11 -6 -30 -8 -42 -4 -17 5 -20 3 -16 -14 5 -17 3
-19 -11 -10 -9 6 -29 28 -46 49 -23 28 -37 38 -60 39 l-29 0 21 22 c20 20 25
20 63 9 22 -6 45 -9 50 -6 5 3 22 8 37 10 16 3 41 8 57 11 21 5 31 2 38 -10
15 -26 35 -19 40 15 5 34 4 35 -64 43 -37 4 -46 3 -42 -8 3 -9 -6 -15 -27 -20
-57 -11 -69 -7 -91 30 -15 25 -25 33 -37 28 -39 -16 -51 -16 -51 0 0 17 -11
19 -47 10 -13 -4 -23 -12 -23 -19 0 -16 -62 -4 -87 17 -9 7 -37 13 -61 13 -49
0 -67 18 -30 30 20 6 16 8 -22 16 -25 5 -56 7 -70 3 -44 -11 -111 -13 -105 -3
4 5 25 18 48 30 51 25 119 26 176 3 26 -10 55 -14 76 -11 19 3 49 1 67 -4 18
-5 64 -14 101 -20 58 -9 71 -8 85 4 10 9 55 35 101 58 l85 42 44 -23 c76 -41
108 -101 81 -152 -18 -33 5 -47 33 -21 41 39 150 84 185 78 29 -5 32 -3 43 30
18 55 107 89 159 60 14 -8 64 -28 111 -44 47 -16 159 -55 250 -87 143 -50 177
-58 256 -62 83 -4 97 -2 152 23 42 19 69 25 87 21 14 -4 112 -8 218 -9 l192
-2 65 38 c36 21 88 56 115 78 53 42 87 47 93 14 2 -11 11 -28 20 -37 8 -10 23
-41 32 -69 l18 -51 88 -2 c69 -2 110 -9 185 -34 53 -18 103 -32 111 -32 23 0
213 263 249 344 11 25 24 46 29 46 21 0 107 -113 143 -188 l39 -84 -66 -99
c-68 -103 -74 -117 -54 -137 20 -20 48 -14 104 23 74 49 174 95 207 95 33 0
50 -33 61 -119 12 -91 7 -87 223 -151 56 -17 66 -17 110 -4 35 11 55 12 73 4
14 -5 50 -14 80 -20 55 -9 55 -9 8 -6 -33 2 -48 0 -48 -9 0 -28 38 -45 122
-54 114 -13 168 -28 175 -49 9 -25 23 -32 64 -32 20 0 42 -7 49 -15 7 -8 23
-15 37 -15 20 0 23 4 18 20 -5 16 -2 20 14 20 12 0 21 -4 21 -9 0 -15 109 -18
115 -3 2 6 16 12 30 12 22 0 25 4 25 34 0 81 50 161 134 214 138 88 292 145
486 183 100 19 136 21 280 16 161 -6 290 -23 384 -51 l46 -14 0 624 0 624
-5700 0 -5700 0 0 -886z m4638 -370 c67 -14 72 -17 72 -41 0 -14 -11 -41 -25
-59 -33 -43 -36 -131 -5 -159 14 -13 20 -31 20 -64 0 -79 20 -221 36 -259 18
-45 11 -78 -19 -87 -12 -4 -38 -22 -57 -40 -19 -18 -46 -38 -58 -45 -13 -6
-21 -14 -18 -17 2 -3 19 2 37 11 39 20 40 20 32 1 -9 -26 -82 -58 -116 -51
-24 5 -39 -1 -73 -26 -24 -19 -41 -39 -39 -46 3 -9 -1 -12 -13 -10 -9 2 -16
11 -14 19 2 8 -6 5 -22 -10 -16 -15 -31 -21 -42 -17 -14 5 -15 4 -5 -8 7 -8
11 -22 9 -32 -2 -13 6 -21 30 -27 17 -6 32 -14 32 -18 0 -5 -7 -6 -15 -3 -8 4
-22 1 -30 -6 -11 -9 -18 -9 -29 3 -8 8 -12 18 -8 22 4 4 -4 5 -18 3 -17 -2
-30 -14 -42 -40 -10 -21 -32 -45 -49 -53 -19 -10 -29 -22 -25 -30 6 -17 -9
-29 -24 -20 -8 5 -7 11 1 21 6 8 10 17 7 19 -9 9 -138 -134 -138 -153 0 -6
-11 -23 -23 -39 -24 -28 -44 -93 -29 -93 5 0 14 6 20 12 10 10 10 5 1 -22 -16
-48 -29 -61 -50 -55 -14 5 -19 1 -19 -14 0 -12 -4 -21 -10 -21 -5 0 -10 -4
-10 -10 0 -5 -12 -35 -27 -67 -33 -72 -34 -147 -4 -198 11 -19 18 -42 14 -50
-7 -20 -63 -50 -85 -46 -9 1 -19 -7 -23 -19 -4 -12 -10 -19 -13 -16 -9 10 -3
168 8 196 5 14 14 63 19 110 29 239 37 293 67 415 13 52 29 175 39 295 8 103
19 159 38 190 12 21 19 50 18 73 -1 27 2 37 14 37 8 0 15 7 15 15 0 8 -7 15
-15 15 -19 0 -20 52 -3 134 10 53 13 57 35 52 13 -4 23 -2 23 4 0 5 -7 10 -15
10 -8 0 -15 3 -15 8 0 4 33 6 72 4 97 -3 107 -5 101 -15 -3 -5 -14 -7 -24 -4
-25 7 -90 -14 -86 -27 9 -27 132 -31 163 -5 7 5 33 11 58 13 26 1 52 8 58 14
16 16 34 15 74 -4 43 -21 63 -8 56 37 -3 24 -12 35 -33 43 -35 13 -38 26 -6
26 23 0 23 2 19 84 -5 94 0 127 24 151 17 17 31 16 162 -11z m2127 -524 c10
-11 26 -22 36 -25 27 -9 32 -40 14 -76 l-17 -32 -26 27 c-25 25 -26 28 -9 37
9 6 17 19 17 31 0 17 -2 18 -15 8 -8 -7 -15 -18 -15 -24 0 -6 -18 -22 -40 -36
-40 -24 -42 -52 -2 -31 15 8 23 6 37 -9 20 -22 19 -22 -9 -37 -13 -7 -26 -7
-44 2 -13 8 -52 16 -85 20 -55 7 -59 9 -42 21 10 8 27 11 38 8 13 -4 27 4 46
25 15 17 31 28 34 24 4 -3 7 3 7 13 0 32 24 74 41 74 9 0 24 -9 34 -20z
m-1559 -229 c5 -5 96 -12 202 -14 198 -5 262 -18 155 -31 -93 -12 -194 -8
-212 7 -10 9 -25 11 -41 7 -14 -4 -32 -4 -40 0 -20 9 -59 6 -93 -8 -49 -21
-72 -10 -49 24 14 22 61 31 78 15z m-313 -108 c-3 -7 2 -13 10 -13 21 0 32
-19 19 -32 -6 -6 -32 -12 -58 -14 -26 -2 -55 -11 -65 -20 -11 -9 -41 -19 -69
-22 -43 -4 -50 -7 -45 -22 8 -24 -12 -35 -31 -19 -12 10 -15 10 -12 -2 2 -9
-8 -15 -31 -17 -31 -3 -32 -2 -18 12 8 9 20 16 25 16 5 0 17 9 27 20 18 19 17
20 -3 20 -12 0 -22 5 -22 10 0 6 11 10 24 10 13 0 29 6 35 14 6 7 43 24 82 36
39 13 76 28 82 35 29 28 62 20 50 -12z m922 -133 c16 -17 26 -20 63 -14 42 6
45 5 39 -15 -3 -14 -1 -21 9 -21 8 0 14 5 14 10 0 6 8 10 18 10 10 0 23 5 29
11 7 7 19 9 28 5 24 -9 0 -50 -25 -43 -11 3 -24 -1 -31 -9 -6 -8 -19 -14 -28
-14 -13 -1 -13 -2 3 -11 17 -11 17 -13 -10 -35 -36 -29 -50 -30 -57 -3 -4 14
1 23 18 31 20 9 22 13 12 29 -8 14 -23 19 -52 19 -43 0 -80 -17 -57 -27 20 -8
14 -23 -11 -23 -13 0 -32 -7 -43 -15 -28 -21 -44 -18 -44 9 0 14 -5 28 -11 32
-18 11 13 24 32 13 14 -7 24 -3 44 18 30 33 31 43 6 43 -11 0 -23 5 -26 10
-12 20 61 11 80 -10z m-2993 -21 c110 -43 178 -150 165 -260 -7 -60 -28 -100
-76 -148 -65 -65 -159 -85 -259 -56 -46 14 -54 14 -92 -1 -22 -9 -43 -14 -46
-11 -3 2 0 25 6 50 10 38 9 49 -6 78 -14 25 -19 56 -19 114 0 100 26 154 99
203 84 56 144 64 228 31z m-352 -618 c0 -10 -21 -63 -46 -117 -25 -55 -61
-132 -80 -173 -19 -40 -34 -78 -34 -85 0 -8 40 -10 148 -8 120 3 149 7 160 20
18 24 15 32 -13 32 -14 0 -34 6 -45 12 -16 10 -24 10 -40 0 -28 -17 -70 -15
-92 5 -13 12 -18 30 -18 68 0 81 25 138 90 207 55 57 60 60 92 54 18 -4 49 -8
68 -9 48 -3 48 -18 5 -133 -35 -95 -40 -144 -11 -113 8 8 32 64 55 124 24 61
46 114 51 119 6 6 20 4 35 -4 21 -11 30 -12 45 -2 54 33 95 -4 94 -86 0 -53 0
-54 15 -31 29 46 107 118 136 125 46 11 79 -13 83 -61 5 -72 -28 -106 -150
-154 -20 -7 -28 -18 -28 -35 0 -38 34 -43 82 -11 45 30 62 24 56 -20 -4 -36
-75 -75 -135 -75 -59 0 -83 25 -84 88 0 41 -2 44 -12 27 -7 -11 -31 -39 -53
-62 -45 -47 -74 -54 -113 -27 -19 14 -25 14 -32 3 -5 -8 -9 -23 -9 -35 0 -19
7 -22 77 -28 42 -3 101 -6 132 -6 31 0 73 -5 94 -11 33 -9 38 -14 35 -37 l-3
-27 -181 0 c-180 0 -182 0 -201 -24 -23 -28 -52 -23 -60 10 -6 20 -10 21 -147
14 -163 -7 -186 -11 -186 -29 0 -18 -91 -144 -133 -184 -65 -62 -148 -72 -189
-21 -35 41 -17 105 51 181 46 52 102 87 177 112 41 13 54 23 67 52 9 19 17 38
17 42 0 4 -21 7 -47 7 -42 0 -49 3 -61 28 -16 33 -7 67 55 196 29 63 42 80 57
78 40 -5 41 -31 8 -106 -35 -79 -40 -111 -17 -111 24 0 55 39 99 121 21 41 48
84 59 97 26 28 77 31 77 3z m4934 -135 c47 -30 80 -76 83 -114 1 -19 10 -40
20 -47 10 -7 18 -19 19 -27 1 -24 26 -78 36 -78 5 0 7 -12 3 -29 -3 -17 -2
-32 4 -36 6 -3 11 -15 11 -25 0 -10 7 -31 17 -47 11 -20 14 -38 9 -58 l-7 -28
-24 49 c-13 27 -29 72 -35 101 -6 28 -20 63 -31 76 -10 14 -19 33 -19 42 0 9
-14 29 -31 45 -22 20 -30 35 -26 49 3 13 -6 33 -29 60 -19 22 -37 54 -40 73
-3 18 -2 28 3 23 4 -6 21 -19 37 -29z m-3447 -1861 c61 -4 104 -10 111 -15 5
-5 25 -8 70 -10 26 -1 41 -4 35 -7 -7 -2 -13 -8 -13 -13 0 -5 6 -10 13 -13 6
-2 1 -2 -11 0 -26 4 -55 -14 -46 -28 3 -5 18 -9 34 -9 16 0 31 -4 34 -9 3 -5
21 -3 41 3 38 13 56 26 36 26 -7 0 -9 5 -6 10 4 6 13 7 23 1 23 -12 69 -8 84
7 17 17 39 15 36 -4 -2 -10 3 -19 11 -22 8 -3 11 0 7 7 -4 6 -1 11 8 11 9 0
13 -7 11 -20 -3 -14 2 -20 15 -20 10 0 25 -3 34 -6 11 -4 16 0 16 11 0 26 72
14 111 -19 30 -25 33 -26 50 -10 10 9 25 14 35 10 9 -3 22 -2 29 4 9 7 16 6
25 -5 7 -8 9 -15 4 -16 -19 -1 32 -18 58 -18 15 -1 30 -6 34 -13 5 -8 -4 -9
-34 -4 -35 5 -43 3 -52 -14 -6 -11 -18 -20 -26 -20 -8 0 -12 5 -8 11 5 8 1 8
-14 0 -11 -6 -34 -11 -51 -11 -16 0 -40 -4 -54 -9 -13 -5 -48 -6 -78 -1 -30 4
-46 8 -36 9 27 2 10 21 -19 21 -13 0 -24 -4 -24 -10 0 -14 -33 -13 -47 1 -15
15 -117 15 -146 1 -12 -6 -39 -13 -61 -17 -52 -9 -36 -23 42 -37 34 -6 62 -15
62 -19 0 -23 -367 -22 -410 1 -12 7 -35 8 -53 4 -28 -6 -30 -8 -12 -15 17 -7
16 -8 -7 -8 -16 -1 -27 2 -27 7 1 4 0 18 -1 32 -2 22 -3 21 -11 -10 -11 -39
-56 -70 -65 -46 -3 8 -26 29 -52 47 -87 62 -141 119 -153 162 -9 32 -8 43 5
55 25 26 86 29 201 10 61 -10 116 -19 122 -20 7 -1 15 -10 19 -20 3 -10 9 -18
14 -18 13 0 66 30 55 31 -5 1 -19 2 -29 3 -11 0 -21 7 -24 15 -3 8 0 11 6 7
14 -8 43 4 36 15 -3 6 -14 7 -24 4 -10 -3 -31 -2 -47 2 l-28 7 30 6 c17 4 33
5 37 3 4 -2 38 -6 75 -8z m5091 -349 c29 -10 24 -30 -9 -34 -36 -5 -48 -22
-16 -22 15 0 37 -10 49 -22 l21 -21 -64 8 c-60 8 -188 14 -321 15 -32 1 -60 5
-63 10 -4 6 1 10 9 10 9 0 16 5 16 10 0 6 -31 10 -72 10 -39 0 -68 3 -64 7 3
4 25 6 48 4 33 -2 39 1 35 14 -5 12 3 15 51 14 47 -1 52 -3 27 -9 -38 -10 -24
-13 42 -10 63 2 81 -6 56 -26 -16 -13 -14 -14 27 -10 56 6 150 28 150 36 0 3
-28 5 -62 4 -75 0 -108 9 -58 16 53 8 172 5 198 -4z m-1089 -22 c39 -11 58
-21 55 -29 -6 -14 42 -15 62 -3 6 4 41 6 78 5 64 -3 91 4 64 17 -7 4 3 4 23 2
20 -2 41 0 47 6 6 6 12 6 16 -1 4 -6 0 -11 -9 -11 -12 0 -15 -6 -10 -20 4 -13
2 -20 -6 -20 -7 0 -20 -6 -28 -14 -23 -19 -181 -28 -181 -9 0 7 -4 13 -10 13
-5 0 -10 -7 -10 -15 0 -8 -5 -15 -11 -15 -6 0 -9 6 -6 13 3 9 -16 23 -55 41
-47 22 -69 27 -99 22 -42 -7 -49 -1 -21 20 22 17 31 17 101 -2z"/>
<path d="M2625 3280 c-25 -27 -13 -60 35 -99 42 -34 50 -55 25 -65 -15 -6 -39
14 -62 50 -10 16 -13 17 -22 4 -16 -23 -13 -39 14 -65 25 -26 85 -34 114 -16
10 7 19 4 28 -7 12 -15 17 -13 53 28 52 59 101 131 97 144 -9 26 -29 11 -81
-58 -64 -86 -76 -96 -76 -66 0 33 -16 56 -55 79 -41 24 -47 51 -10 51 18 0 28
-7 35 -26 12 -31 34 -27 38 8 6 52 -94 81 -133 38z"/>
<path d="M9810 3986 c0 -8 -4 -16 -10 -18 -12 -4 93 -81 116 -84 10 -2 21 -10
26 -19 5 -8 14 -12 20 -9 6 4 8 3 5 -3 -9 -14 57 -53 95 -58 16 -2 38 -15 49
-29 39 -50 52 -24 33 69 -15 69 -41 128 -55 120 -5 -4 -9 1 -9 9 0 21 -29 28
-112 25 -40 -2 -92 0 -115 4 -34 5 -43 4 -43 -7z"/>
<path d="M0 2686 c0 -924 1 -976 17 -976 103 -2 329 -12 332 -16 7 -6 1 -135
-9 -179 -4 -22 -11 -70 -15 -107 -6 -58 -9 -67 -28 -71 -22 -4 -22 -4 0 -6 23
-1 23 -2 7 -43 -29 -79 -48 -123 -63 -147 -8 -13 -16 -30 -17 -38 -6 -42 -13
-46 -65 -40 -31 4 -56 13 -64 23 -11 16 -12 15 -17 -4 -5 -17 -12 -20 -42 -18
-25 2 -36 -1 -36 -10 0 -16 0 -16 107 -14 52 0 83 -3 83 -9 0 -10 -67 -15
-152 -11 l-38 2 0 -511 0 -511 130 0 130 0 -6 25 c-5 19 0 30 19 47 l24 22
-31 56 -30 57 29 26 c17 15 24 27 18 27 -10 0 -13 23 -12 85 1 80 2 86 27 105
l27 19 -24 1 c-20 0 -21 2 -11 15 10 12 10 18 1 29 -9 11 -10 29 -3 68 6 30 6
60 1 69 -4 9 -6 19 -2 22 3 4 0 14 -7 22 -10 12 -14 52 -14 133 -1 125 -4 112
69 262 7 14 15 56 18 94 4 37 11 73 15 80 12 14 23 71 22 114 0 18 3 32 7 31
23 -4 34 5 61 45 52 76 65 165 30 203 -16 18 -16 21 0 48 11 18 18 49 17 78 0
48 1 48 27 43 26 -5 28 -3 34 34 4 22 13 45 20 51 8 6 14 19 14 29 0 21 30 42
82 59 90 30 197 120 302 256 51 65 167 188 200 210 11 8 18 16 15 18 -2 2 -89
48 -194 102 -104 54 -212 110 -239 124 -56 30 -109 91 -336 391 -85 112 -101
132 -153 195 -19 22 -40 50 -49 63 -8 12 -32 40 -52 62 -20 21 -36 42 -36 45
0 6 -57 89 -106 154 l-34 43 0 -976z"/>
<path d="M9215 3050 c-4 -6 -10 -8 -15 -5 -5 3 -26 -2 -47 -11 -37 -16 -37
-17 -13 -23 37 -10 38 -46 4 -83 -24 -24 -26 -30 -14 -38 8 -5 18 -10 23 -10
4 0 7 -7 7 -15 0 -21 62 -49 91 -42 32 8 113 84 131 123 16 34 5 54 -31 54
-11 0 -22 4 -26 9 -11 18 -69 41 -88 35 -13 -4 -17 -2 -13 5 4 6 5 11 2 11 -3
0 -8 -5 -11 -10z"/>
<path d="M8204 1799 c-17 -21 -43 -103 -48 -152 -3 -23 -8 -57 -12 -74 -6 -30
-4 -33 19 -33 39 0 96 28 149 73 26 23 48 45 48 50 0 4 -13 6 -28 5 -38 -3
-49 6 -56 47 -5 25 -12 35 -25 35 -12 0 -21 11 -27 31 -7 26 -11 29 -20 18z"/>
<path d="M10805 1620 c-4 -7 -21 -10 -39 -8 -17 3 -53 2 -81 -2 l-50 -7 48 -2
c47 -1 69 -21 23 -21 -13 0 -39 -3 -57 -7 -33 -7 -32 -8 26 -19 52 -10 55 -12
23 -13 -23 -1 -37 -6 -35 -12 1 -6 -4 -14 -10 -16 -7 -3 -13 2 -13 11 0 11 -9
16 -30 16 -16 0 -30 -4 -30 -10 0 -5 -21 -10 -47 -10 -37 0 -44 -3 -35 -12 15
-15 184 -11 194 5 5 8 11 7 22 -2 14 -12 84 -23 141 -22 57 0 166 14 170 21 3
5 17 5 32 -1 30 -11 36 -8 27 15 -5 13 -21 16 -85 16 -46 0 -79 4 -79 10 0 6
-9 10 -19 10 -11 0 -23 -4 -26 -10 -10 -15 -55 -12 -61 5 -4 8 -9 13 -13 11
-3 -2 -17 1 -31 6 -24 10 -24 11 -5 18 11 5 57 9 102 9 62 1 81 4 77 14 -6 17
-129 23 -139 7z"/>
<path d="M11305 1415 c-48 -12 -49 -13 -25 -23 14 -6 18 -11 10 -11 -8 -1 -28
-8 -44 -16 -22 -12 -53 -14 -135 -11 -62 3 -96 1 -81 -4 14 -4 37 -8 53 -9 15
-1 27 -6 27 -12 0 -7 -10 -9 -24 -5 -14 3 -27 2 -30 -2 -13 -22 17 -29 129
-29 66 0 141 -3 168 -7 l47 -7 0 75 c0 86 2 85 -95 61z"/>
</g>
</svg>
